<?xml version="1.0" encoding="UTF-8" standalone="no"?>
<svg xmlns="http://www.w3.org/2000/svg" xmlns:svg="http://www.w3.org/2000/svg" version="1.1" width="64mm" height="64mm" viewBox="0 0 64 64">
  <path style="fill:#ffffff" d="m 16.000574,11.529529 c -1.226177,1.097073 -2.000395,2.688136 -2.000395,4.470528 v 35.99987 c 0,3.323992 2.676193,6.00015 6.000151,6.00015 h 19.999296 c 1.782238,0 3.373473,-0.773846 4.470528,-1.999878 H 21.999691 c -3.323958,0 -5.999117,-2.676156 -5.999117,-6.00015 z" />
  <path style="fill:#ffffff" d="m 24.000085,6.0001506 c -3.323953,0 -5.999633,2.6761597 -5.999633,6.0001504 v 35.99987 c 0,3.323991 2.67568,6.00015 5.999633,6.00015 h 19.999813 c 3.323955,0 6.000151,-2.676158 6.000151,-6.00015 V 22.000208 H 39.999626 c -3.323956,0 -5.999634,-2.676161 -5.999634,-6.000151 V 6.0001506 Z" />
  <path style="fill:#ffffff" d="m 35.99987,6.0001506 v 8.7498534 c 0,2.68392 1.995536,4.880429 4.588867,5.204334 3.9031,-0.03394 8.888904,-0.05849 9.411312,0.04599 z" />
</svg>