<?xml version="1.0" encoding="UTF-8" standalone="no"?>
<svg xmlns="http://www.w3.org/2000/svg" xmlns:svg="http://www.w3.org/2000/svg" version="1.1" width="64" height="64">
  <path style="fill:#ffffff" d="m 8,12 c -2,0 -4,1 -4,4 v 40 c 0,2 1,4 4,4 h 40 c 2,0 4,-1 4,-4 H 12 C 9,56 8,54 8,52 Z" />
  <path style="fill:#ffffff" d="m 16,4 c -2,0 -4,1 -4,4 v 40 c 0,2 1,4 4,4 h 40 c 2,0 4,-1 4,-4 V 28 H 44 c -4,0 -8,-3 -8,-8 V 4 Z" />
  <path style="fill:#ffffff" d="m 40,4 v 16 c 0,2 1,4 4,4 h 16 z" />
</svg>