<?xml version="1.0" encoding="UTF-8" standalone="no"?>
<svg xmlns="http://www.w3.org/2000/svg" xmlns:svg="http://www.w3.org/2000/svg" version="1.1" width="64" height="64">
  <path style="fill:#ffffff" d="M 32,0 A 32,32 0 0 0 0,32 32,32 0 0 0 32,64 32,32 0 0 0 64,32 32,32 0 0 0 32,0 Z" />
  <path style="fill:#4285f4" d="m 28,42 a 4,4 0 0 0 -4,4 4,4 0 0 0 4,4 h 20 a 4,4 0 0 0 4,-4 4,4 0 0 0 -4,-4 z" />
  <path style="fill:#34a853" d="m 28,28 a 4,4 0 0 0 -4,4 4,4 0 0 0 4,4 h 20 a 4,4 0 0 0 4,-4 4,4 0 0 0 -4,-4 z" />
  <path style="fill:#ea4335" d="m 28,14 a 4,4 0 0 0 -4,4 4,4 0 0 0 4,4 h 20 a 4,4 0 0 0 4,-4 4,4 0 0 0 -4,-4 z" />
  <path style="fill:#fbbc05" d="m 16,42 a 4,4 0 0 0 -4,4 4,4 0 0 0 4,4 4,4 0 0 0 4,-4 4,4 0 0 0 -4,-4 z" />
  <path style="fill:#fbbc05" d="m 16,28 a 4,4 0 0 0 -4,4 4,4 0 0 0 4,4 4,4 0 0 0 4,-4 4,4 0 0 0 -4,-4 z" />
  <path style="fill:#fbbc05" d="m 16,14 a 4,4 0 0 0 -4,4 4,4 0 0 0 4,4 4,4 0 0 0 4,-4 4,4 0 0 0 -4,-4 z" />
</svg>